#!OML:ASF Y:\EmotionMaleHayes\Project 1\Capture day 1\Session 1\Male1.ASF
:FULLY-SPECIFIED
:DEGREES
877
root 7.81419 17.2017 1.59228 503.527 81.3074 501.318
lowerback 8.82743 -0.115606 -8.46209
upperback 7.53494 -0.219606 -1.90509
thorax 3.0133 -0.248828 2.7717
lowerneck -23.0848 2.79951 2.75474
upperneck 27.3063 3.68815 -1.24695
head 13.0804 1.83663 -0.26795
rclavicle -4.47266e-015 -1.82882e-014
rhumerus 51.7244 12.9879 -30.8931
rradius 39.6832
rwrist -3.22328
rhand 1.52643 -31.821
rfingers 7.12502
rthumb 27.0516 -59.9033
lclavicle -4.47266e-015 -1.82882e-014
lhumerus 46.9529 -15.0594 23.9453
lradius 39.6905
lwrist 7.48133
lhand -4.89251 -19.6156
lfingers 7.12502
lthumb 20.8967 9.27888
rfemur -13.2415 -3.40984 5.85681
rtibia 17.2925
rfoot -10.7184 -3.32448
rtoes 5.81776
lfemur 11.3221 -5.2881 -7.82697
ltibia 14.9384
lfoot -9.12304 6.41686
ltoes -10.3938
878
root 7.89828 17.2278 1.65809 506.43 80.8947 504.034
lowerback 8.557 -0.27908 -8.20987
upperback 7.48686 -0.407421 -1.81319
thorax 3.12427 -0.341456 2.73687
lowerneck -23.2337 2.79557 2.65317
upperneck 27.4007 3.65277 -1.03797
head 13.1415 1.83888 -0.173298
rclavicle 8.54774e-015 -2.14687e-014
rhumerus 51.7193 13.053 -30.6751
rradius 39.6963
rwrist -3.03937
rhand 1.97679 -31.5655
rfingers 7.12502
rthumb 27.4824 -59.5802
lclavicle 8.54774e-015 -2.14687e-014
lhumerus 46.9135 -14.9979 24.0822
lradius 39.6713
lwrist 7.19455
lhand -4.74476 -19.7221
lfingers 7.12502
lthumb 21.0386 9.15673
rfemur -12.8685 -3.65632 6.19072
rtibia 17.0756
rfoot -11.0071 -3.52669
rtoes 5.81226
lfemur 10.8076 -5.42827 -7.46274
ltibia 15.4383
lfoot -8.34085 6.40778
ltoes -9.98551
879
root 7.98054 17.251 1.71786 507.58 80.4047 505.029
lowerback 8.38747 -0.376665 -8.14553
upperback 7.37676 -0.533811 -1.76168
thorax 3.11199 -0.404426 2.7611
lowerneck -23.3732 2.72844 2.47029
upperneck 27.5454 3.58473 -0.896811
head 13.2208 1.80989 -0.0966258
rclavicle 1.78906e-015 0
rhumerus 51.6146 13.2337 -30.1985
rradius 39.8486
rwrist -3.29482
rhand 2.25911 -31.5854
rfingers 7.12502
rthumb 27.7524 -59.5569
lclavicle 1.78906e-015 0
lhumerus 46.9623 -15.1053 24.2385
lradius 39.5557
lwrist 7.13943
lhand -4.76958 -19.912
lfingers 7.12502
lthumb 21.0148 8.96943
rfemur -12.3939 -3.83546 6.20171
rtibia 16.6776
rfoot -11.1949 -3.70792
rtoes 5.97826
lfemur 10.4074 -5.6405 -7.49064
ltibia 15.9735
lfoot -7.70874 6.60323
ltoes -8.40932
880
root 8.05743 17.2717 1.77306 507.873 79.9617 505.115
lowerback 8.20512 -0.427034 -8.08278
upperback 7.34557 -0.581914 -1.80986
thorax 3.18182 -0.427107 2.67697
lowerneck -23.6961 2.70531 2.56821
upperneck 27.5825 3.50584 -0.922388
head 13.3036 1.77793 -0.13311
rclavicle 3.67752e-015 -2.80286e-014
rhumerus 51.5414 13.1304 -29.8897
rradius 39.9361
rwrist -3.48715
rhand 2.43092 -31.9384
rfingers 7.12502
rthumb 27.9166 -59.8833
lclavicle 3.67752e-015 -2.80286e-014
lhumerus 47.1903 -15.0791 24.1836
lradius 39.4963
lwrist 7.19382
lhand -5.10138 -19.8847
lfingers 7.12502
lthumb 20.696 9.03183
rfemur -12.1786 -4.01655 6.10731
rtibia 16.577
rfoot -11.4939 -3.79018
rtoes 6.39694
lfemur 9.98716 -5.88692 -7.67715
ltibia 16.4573
lfoot -6.95755 6.91673
ltoes -4.6586
881
root 8.12966 17.2886 1.82701 508.805 79.6164 505.884
lowerback 8.09691 -0.505331 -7.81655
upperback 7.18932 -0.68145 -1.85929
thorax 3.07505 -0.461832 2.48302
lowerneck -23.4406 2.73194 2.72382
upperneck 27.483 3.51073 -0.980248
head 13.2151 1.79181 -0.184761
rclavicle -1.0635e-014 -1.86858e-014
rhumerus 51.3785 13.2346 -29.822
rradius 39.9438
rwrist -3.40018
rhand 2.71754 -32.0472
rfingers 7.12502
rthumb 28.1906 -59.9473
lclavicle -1.0635e-014 -1.86858e-014
lhumerus 47.1451 -15.2117 24.1421
lradius 39.5773
lwrist 7.21677
lhand -5.44467 -19.8519
lfingers 7.12502
lthumb 20.3661 9.10012
rfemur -12.0129 -4.17898 6.22814
rtibia 16.6267
rfoot -11.8623 -3.88456
rtoes 6.72756
lfemur 9.57584 -6.01631 -7.62488
ltibia 16.8707
lfoot -6.20425 7.24463
ltoes -2.90052
882
root 8.20183 17.3017 1.87812 510.203 79.2961 507.258
lowerback 8.07811 -0.636352 -7.53729
upperback 7.08422 -0.856334 -1.78937
thorax 2.98187 -0.538367 2.41024
lowerneck -23.228 2.74162 2.61429
upperneck 27.4194 3.5692 -0.959828
head 13.1436 1.81144 -0.150925
rclavicle 2.06736e-014 6.75868e-015
rhumerus 51.4021 13.4529 -29.5555
rradius 40.0085
rwrist -3.33499
rhand 2.87404 -31.9785
rfingers 7.12502
rthumb 28.3402 -59.8538
lclavicle 2.06736e-014 6.75868e-015
lhumerus 46.87 -15.1604 24.394
lradius 39.6712
lwrist 7.16999
lhand -5.64001 -19.867
lfingers 7.12502
lthumb 20.1784 9.10505
rfemur -11.5754 -4.44439 6.4681
rtibia 16.4633
rfoot -12.157 -3.9203
rtoes 6.3723
lfemur 9.26485 -6.05657 -7.42628
ltibia 17.3744
lfoot -5.62779 7.48116
ltoes -3.48614
883
root 8.2735 17.3125 1.92613 511.704 79.0428 508.732
lowerback 8.00654 -0.737665 -7.20598
upperback 7.07021 -0.975543 -1.66756
thorax 3.0079 -0.590763 2.35776
lowerneck -23.4146 2.71904 2.50476
upperneck 27.4559 3.58476 -1.00118
head 13.1955 1.79824 -0.143263
rclavicle 8.05078e-015 2.127e-014
rhumerus 51.4627 13.4656 -29.3071
rradius 40.0813
rwrist -3.25882
rhand 2.78219 -31.9585
rfingers 7.12502
rthumb 28.2524 -59.8484
lclavicle 8.05078e-015 2.127e-014
lhumerus 46.7985 -14.9185 24.7707
lradius 39.5972
lwrist 7.13829
lhand -5.88644 -19.8142
lfingers 7.12502
lthumb 19.9415 9.18262
rfemur -11.0881 -4.8147 6.77322
rtibia 16.1702
rfoot -12.3412 -3.82766
rtoes 6.09412
lfemur 8.97904 -6.13362 -7.1814
ltibia 17.9573
lfoot -5.31421 7.66055
ltoes -3.17464
884
root 8.34354 17.3185 1.97244 512.916 78.952 509.919
lowerback 7.85837 -0.750627 -6.79825
upperback 7.13566 -0.95906 -1.55839
thorax 3.14489 -0.574998 2.24074
lowerneck -23.7065 2.69849 2.53367
upperneck 27.4066 3.55447 -1.09588
head 13.2369 1.76929 -0.187682
rclavicle -1.50082e-014 1.74931e-014
rhumerus 51.5228 13.2114 -29.1726
rradius 40.0747
rwrist -3.29342
rhand 2.69318 -31.9297
rfingers 7.12502
rthumb 28.1673 -59.8336
lclavicle -1.50082e-014 1.74931e-014
lhumerus 47.0961 -14.6427 25.0393
lradius 39.3461
lwrist 7.28453
lhand -6.29981 -19.7586
lfingers 7.12502
lthumb 19.5441 9.27909
rfemur -10.6891 -5.01069 7.15468
rtibia 15.9299
rfoot -12.4616 -3.72549
rtoes 6.59649
lfemur 8.84546 -6.1853 -6.91208
ltibia 18.3306
lfoot -5.03381 7.92553
ltoes -2.01005
885
root 8.4118 17.3225 2.018 513.101 78.9606 510.165
lowerback 7.79795 -0.69916 -6.51124
upperback 7.22185 -0.865384 -1.50635
thorax 3.25256 -0.52123 2.12911
lowerneck -23.7353 2.69213 2.54742
upperneck 27.169 3.52257 -1.10046
head 13.1443 1.75278 -0.199453
rclavicle -1.57537e-014 2.68359e-014
rhumerus 51.5415 12.8934 -29.0594
rradius 40.1319
rwrist -3.42167
rhand 2.80684 -32.0062
rfingers 7.12502
rthumb 28.276 -59.8922
lclavicle -1.57537e-014 2.68359e-014
lhumerus 47.1864 -14.1264 25.9091
lradius 39.1473
lwrist 6.73619
lhand -6.61121 -19.9327
lfingers 7.12502
lthumb 19.2447 9.13513
rfemur -10.3004 -4.99658 7.41957
rtibia 15.7525
rfoot -12.6202 -3.68242
rtoes 6.86924
lfemur 8.87965 -6.16847 -6.79622
ltibia 18.561
lfoot -4.58967 8.36616
ltoes 0.506348
886
root 8.48068 17.3292 2.05922 512.085 78.8754 509.24
lowerback 7.8395 -0.6364 -6.43201
upperback 7.21979 -0.779427 -1.55601
thorax 3.21664 -0.471892 2.03019
lowerneck -23.6115 2.67086 2.50867
upperneck 27.0707 3.48458 -1.02893
head 13.0755 1.74338 -0.174247
rclavicle -6.80837e-015 -1.83876e-014
rhumerus 51.3658 12.697 -29.1916
rradius 40.2059
rwrist -3.36439
rhand 2.82301 -32.1651
rfingers 7.12502
rthumb 28.2914 -60.0485
lclavicle -6.80837e-015 -1.83876e-014
lhumerus 47.0487 -13.7789 26.6986
lradius 39.1474
lwrist 6.04304
lhand -6.85159 -20.1059
lfingers 7.12502
lthumb 19.0136 8.98472
rfemur -9.83197 -5.13124 7.36361
rtibia 15.5931
rfoot -12.8394 -3.49894
rtoes 6.38055
lfemur 8.97188 -6.13187 -7.00641
ltibia 18.8021
lfoot -4.20729 8.93625
ltoes 3.91077
887
root 8.55101 17.335 2.10242 510.933 78.7517 508.177
lowerback 7.90545 -0.572968 -6.46454
upperback 7.18058 -0.703881 -1.59845
thorax 3.13261 -0.431364 2.00193
lowerneck -23.5899 2.65698 2.47518
upperneck 27.1448 3.45034 -0.922173
head 13.0977 1.74175 -0.132751
rclavicle -4.22417e-015 1.27222e-014
rhumerus 51.1339 12.5312 -29.4966
rradius 40.2174
rwrist -3.19553
rhand 2.6812 -32.1704
rfingers 7.12502
rthumb 28.1559 -60.0762
lclavicle -4.22417e-015 1.27222e-014
lhumerus 47.3047 -14.0472 26.0245
lradius 39.2179
lwrist 6.81515
lhand -7.20527 -19.9421
lfingers 7.12502
lthumb 18.6734 9.18161
rfemur -9.30758 -5.26934 7.26421
rtibia 15.3797
rfoot -13.0296 -3.27484
rtoes 5.89957
lfemur 9.07659 -5.95066 -7.1994
ltibia 19.0521
lfoot -3.88004 9.32468
ltoes 4.20181
